{
	"asset":{
		"generator":"Khronos glTF Blender I/O v4.3.47",
		"version":"2.0"
	},
	"scene":0,
	"scenes":[
		{
			"name":"Scene",
			"nodes":[
				0
			]
		}
	],
	"nodes":[
		{
			"mesh":0,
			"name":"Hoplite"
		}
	],
	"materials":[
		{
			"doubleSided":true,
			"name":"Greek",
			"pbrMetallicRoughness":{
				"metallicFactor":0,
				"roughnessFactor":0.5527864098548889
			}
		}
	],
	"meshes":[
		{
			"name":"Mesh.005",
			"primitives":[
				{
					"attributes":{
						"POSITION":0,
						"NORMAL":1,
						"TEXCOORD_0":2,
						"TEXCOORD_1":3,
						"COLOR_0":4,
						"COLOR_1":5
					},
					"indices":6,
					"material":0
				}
			]
		}
	],
	"accessors":[
		{
			"bufferView":0,
			"componentType":5126,
			"count":5593,
			"max":[
				1.0242162942886353,
				1.8080377578735352,
				0.16554833948612213
			],
			"min":[
				-1.0232982635498047,
				0.019986510276794434,
				-0.1661614179611206
			],
			"type":"VEC3"
		},
		{
			"bufferView":1,
			"componentType":5126,
			"count":5593,
			"type":"VEC3"
		},
		{
			"bufferView":2,
			"componentType":5126,
			"count":5593,
			"type":"VEC2"
		},
		{
			"bufferView":3,
			"componentType":5126,
			"count":5593,
			"type":"VEC2"
		},
		{
			"bufferView":4,
			"componentType":5126,
			"count":5593,
			"type":"VEC3"
		},
		{
			"bufferView":5,
			"componentType":5123,
			"count":5593,
			"normalized":true,
			"type":"VEC4"
		},
		{
			"bufferView":6,
			"componentType":5123,
			"count":7761,
			"type":"SCALAR"
		}
	],
	"bufferViews":[
		{
			"buffer":0,
			"byteLength":67116,
			"byteOffset":0,
			"target":34962
		},
		{
			"buffer":0,
			"byteLength":67116,
			"byteOffset":67116,
			"target":34962
		},
		{
			"buffer":0,
			"byteLength":44744,
			"byteOffset":134232,
			"target":34962
		},
		{
			"buffer":0,
			"byteLength":44744,
			"byteOffset":178976,
			"target":34962
		},
		{
			"buffer":0,
			"byteLength":67116,
			"byteOffset":223720,
			"target":34962
		},
		{
			"buffer":0,
			"byteLength":44744,
			"byteOffset":290836,
			"target":34962
		},
		{
			"buffer":0,
			"byteLength":15522,
			"byteOffset":335580,
			"target":34963
		}
	],
	"buffers":[
		{
			"byteLength":351104,
			"uri":"Hoplite.bin"
		}
	]
}
