{
	"asset":{
		"generator":"Khronos glTF Blender I/O v4.3.47",
		"version":"2.0"
	},
	"scene":0,
	"scenes":[
		{
			"name":"Scene",
			"nodes":[
				0
			]
		}
	],
	"nodes":[
		{
			"mesh":0,
			"name":"Commandant",
			"rotation":[
				0.7071068286895752,
				0,
				0,
				0.7071068286895752
			]
		}
	],
	"materials":[
		{
			"doubleSided":true,
			"name":"Greek",
			"pbrMetallicRoughness":{
				"metallicFactor":0,
				"roughnessFactor":0.5527864098548889
			}
		}
	],
	"meshes":[
		{
			"name":"Mesh.001",
			"primitives":[
				{
					"attributes":{
						"POSITION":0,
						"NORMAL":1,
						"TEXCOORD_0":2,
						"TEXCOORD_1":3,
						"COLOR_0":4,
						"COLOR_1":5
					},
					"indices":6,
					"material":0
				}
			]
		}
	],
	"accessors":[
		{
			"bufferView":0,
			"componentType":5126,
			"count":4262,
			"max":[
				102.375732421875,
				15.882509231567383,
				6.556510925292969e-07
			],
			"min":[
				-102.375732421875,
				-19.138500213623047,
				-178.80511474609375
			],
			"type":"VEC3"
		},
		{
			"bufferView":1,
			"componentType":5126,
			"count":4262,
			"type":"VEC3"
		},
		{
			"bufferView":2,
			"componentType":5126,
			"count":4262,
			"type":"VEC2"
		},
		{
			"bufferView":3,
			"componentType":5126,
			"count":4262,
			"type":"VEC2"
		},
		{
			"bufferView":4,
			"componentType":5121,
			"count":4262,
			"normalized":true,
			"type":"VEC4"
		},
		{
			"bufferView":5,
			"componentType":5123,
			"count":4262,
			"normalized":true,
			"type":"VEC4"
		},
		{
			"bufferView":6,
			"componentType":5123,
			"count":5922,
			"type":"SCALAR"
		}
	],
	"bufferViews":[
		{
			"buffer":0,
			"byteLength":51144,
			"byteOffset":0,
			"target":34962
		},
		{
			"buffer":0,
			"byteLength":51144,
			"byteOffset":51144,
			"target":34962
		},
		{
			"buffer":0,
			"byteLength":34096,
			"byteOffset":102288,
			"target":34962
		},
		{
			"buffer":0,
			"byteLength":34096,
			"byteOffset":136384,
			"target":34962
		},
		{
			"buffer":0,
			"byteLength":17048,
			"byteOffset":170480,
			"target":34962
		},
		{
			"buffer":0,
			"byteLength":34096,
			"byteOffset":187528,
			"target":34962
		},
		{
			"buffer":0,
			"byteLength":11844,
			"byteOffset":221624,
			"target":34963
		}
	],
	"buffers":[
		{
			"byteLength":233468,
			"uri":"Commandant.bin"
		}
	]
}
