{
	"asset":{
		"generator":"Khronos glTF Blender I/O v4.3.47",
		"version":"2.0"
	},
	"scene":0,
	"scenes":[
		{
			"name":"Scene",
			"nodes":[
				0
			]
		}
	],
	"nodes":[
		{
			"mesh":0,
			"name":"Messager",
			"rotation":[
				0.7071068286895752,
				0,
				0,
				0.7071068286895752
			]
		}
	],
	"materials":[
		{
			"doubleSided":true,
			"name":"Greek",
			"pbrMetallicRoughness":{
				"metallicFactor":0,
				"roughnessFactor":0.5527864098548889
			}
		}
	],
	"meshes":[
		{
			"name":"Mesh.010",
			"primitives":[
				{
					"attributes":{
						"POSITION":0,
						"NORMAL":1,
						"TEXCOORD_0":2,
						"TEXCOORD_1":3,
						"TEXCOORD_2":4,
						"COLOR_0":5,
						"COLOR_1":6
					},
					"indices":7,
					"material":0
				}
			]
		}
	],
	"accessors":[
		{
			"bufferView":0,
			"componentType":5126,
			"count":3499,
			"max":[
				102.375732421875,
				13.455350875854492,
				4.172325134277344e-07
			],
			"min":[
				-102.375732421875,
				-18.012792587280273,
				-178.80511474609375
			],
			"type":"VEC3"
		},
		{
			"bufferView":1,
			"componentType":5126,
			"count":3499,
			"type":"VEC3"
		},
		{
			"bufferView":2,
			"componentType":5126,
			"count":3499,
			"type":"VEC2"
		},
		{
			"bufferView":3,
			"componentType":5126,
			"count":3499,
			"type":"VEC2"
		},
		{
			"bufferView":4,
			"componentType":5126,
			"count":3499,
			"type":"VEC2"
		},
		{
			"bufferView":5,
			"componentType":5121,
			"count":3499,
			"normalized":true,
			"type":"VEC4"
		},
		{
			"bufferView":6,
			"componentType":5123,
			"count":3499,
			"normalized":true,
			"type":"VEC4"
		},
		{
			"bufferView":7,
			"componentType":5123,
			"count":5022,
			"type":"SCALAR"
		}
	],
	"bufferViews":[
		{
			"buffer":0,
			"byteLength":41988,
			"byteOffset":0,
			"target":34962
		},
		{
			"buffer":0,
			"byteLength":41988,
			"byteOffset":41988,
			"target":34962
		},
		{
			"buffer":0,
			"byteLength":27992,
			"byteOffset":83976,
			"target":34962
		},
		{
			"buffer":0,
			"byteLength":27992,
			"byteOffset":111968,
			"target":34962
		},
		{
			"buffer":0,
			"byteLength":27992,
			"byteOffset":139960,
			"target":34962
		},
		{
			"buffer":0,
			"byteLength":13996,
			"byteOffset":167952,
			"target":34962
		},
		{
			"buffer":0,
			"byteLength":27992,
			"byteOffset":181948,
			"target":34962
		},
		{
			"buffer":0,
			"byteLength":10044,
			"byteOffset":209940,
			"target":34963
		}
	],
	"buffers":[
		{
			"byteLength":219984,
			"uri":"Messager.bin"
		}
	]
}
