{
	"asset":{
		"generator":"Khronos glTF Blender I/O v4.3.47",
		"version":"2.0"
	},
	"scene":0,
	"scenes":[
		{
			"name":"Scene",
			"nodes":[
				0
			]
		}
	],
	"nodes":[
		{
			"mesh":0,
			"name":"Commandant"
		}
	],
	"materials":[
		{
			"doubleSided":true,
			"name":"Greek.003",
			"pbrMetallicRoughness":{
				"metallicFactor":0,
				"roughnessFactor":0.5527864098548889
			}
		}
	],
	"meshes":[
		{
			"name":"Mesh.002",
			"primitives":[
				{
					"attributes":{
						"POSITION":0,
						"NORMAL":1,
						"TEXCOORD_0":2,
						"TEXCOORD_1":3,
						"COLOR_0":4,
						"COLOR_1":5
					},
					"indices":6,
					"material":0
				}
			]
		}
	],
	"accessors":[
		{
			"bufferView":0,
			"componentType":5126,
			"count":4280,
			"max":[
				1.0234837532043457,
				1.8286499977111816,
				0.17691268026828766
			],
			"min":[
				-1.0240309238433838,
				0.04059880971908569,
				-0.17329742014408112
			],
			"type":"VEC3"
		},
		{
			"bufferView":1,
			"componentType":5126,
			"count":4280,
			"type":"VEC3"
		},
		{
			"bufferView":2,
			"componentType":5126,
			"count":4280,
			"type":"VEC2"
		},
		{
			"bufferView":3,
			"componentType":5126,
			"count":4280,
			"type":"VEC2"
		},
		{
			"bufferView":4,
			"componentType":5126,
			"count":4280,
			"type":"VEC3"
		},
		{
			"bufferView":5,
			"componentType":5123,
			"count":4280,
			"normalized":true,
			"type":"VEC4"
		},
		{
			"bufferView":6,
			"componentType":5123,
			"count":5922,
			"type":"SCALAR"
		}
	],
	"bufferViews":[
		{
			"buffer":0,
			"byteLength":51360,
			"byteOffset":0,
			"target":34962
		},
		{
			"buffer":0,
			"byteLength":51360,
			"byteOffset":51360,
			"target":34962
		},
		{
			"buffer":0,
			"byteLength":34240,
			"byteOffset":102720,
			"target":34962
		},
		{
			"buffer":0,
			"byteLength":34240,
			"byteOffset":136960,
			"target":34962
		},
		{
			"buffer":0,
			"byteLength":51360,
			"byteOffset":171200,
			"target":34962
		},
		{
			"buffer":0,
			"byteLength":34240,
			"byteOffset":222560,
			"target":34962
		},
		{
			"buffer":0,
			"byteLength":11844,
			"byteOffset":256800,
			"target":34963
		}
	],
	"buffers":[
		{
			"byteLength":268644,
			"uri":"Commandant.bin"
		}
	]
}
