{
	"asset":{
		"generator":"Khronos glTF Blender I/O v4.3.47",
		"version":"2.0"
	},
	"scene":0,
	"scenes":[
		{
			"name":"Scene",
			"nodes":[
				0
			]
		}
	],
	"nodes":[
		{
			"mesh":0,
			"name":"Frondeur"
		}
	],
	"materials":[
		{
			"doubleSided":true,
			"name":"Greek.004",
			"pbrMetallicRoughness":{
				"metallicFactor":0,
				"roughnessFactor":0.5527864098548889
			}
		}
	],
	"meshes":[
		{
			"name":"Mesh.007",
			"primitives":[
				{
					"attributes":{
						"POSITION":0,
						"NORMAL":1,
						"TEXCOORD_0":2,
						"TEXCOORD_1":3,
						"TEXCOORD_2":4,
						"COLOR_0":5,
						"COLOR_1":6
					},
					"indices":7,
					"material":0
				}
			]
		}
	],
	"accessors":[
		{
			"bufferView":0,
			"componentType":5126,
			"count":4210,
			"max":[
				1.0323810577392578,
				1.8493845462799072,
				0.1532260775566101
			],
			"min":[
				-1.0151335000991821,
				0.06133335828781128,
				-0.170741006731987
			],
			"type":"VEC3"
		},
		{
			"bufferView":1,
			"componentType":5126,
			"count":4210,
			"type":"VEC3"
		},
		{
			"bufferView":2,
			"componentType":5126,
			"count":4210,
			"type":"VEC2"
		},
		{
			"bufferView":3,
			"componentType":5126,
			"count":4210,
			"type":"VEC2"
		},
		{
			"bufferView":4,
			"componentType":5126,
			"count":4210,
			"type":"VEC2"
		},
		{
			"bufferView":5,
			"componentType":5126,
			"count":4210,
			"type":"VEC3"
		},
		{
			"bufferView":6,
			"componentType":5123,
			"count":4210,
			"normalized":true,
			"type":"VEC4"
		},
		{
			"bufferView":7,
			"componentType":5123,
			"count":5856,
			"type":"SCALAR"
		}
	],
	"bufferViews":[
		{
			"buffer":0,
			"byteLength":50520,
			"byteOffset":0,
			"target":34962
		},
		{
			"buffer":0,
			"byteLength":50520,
			"byteOffset":50520,
			"target":34962
		},
		{
			"buffer":0,
			"byteLength":33680,
			"byteOffset":101040,
			"target":34962
		},
		{
			"buffer":0,
			"byteLength":33680,
			"byteOffset":134720,
			"target":34962
		},
		{
			"buffer":0,
			"byteLength":33680,
			"byteOffset":168400,
			"target":34962
		},
		{
			"buffer":0,
			"byteLength":50520,
			"byteOffset":202080,
			"target":34962
		},
		{
			"buffer":0,
			"byteLength":33680,
			"byteOffset":252600,
			"target":34962
		},
		{
			"buffer":0,
			"byteLength":11712,
			"byteOffset":286280,
			"target":34963
		}
	],
	"buffers":[
		{
			"byteLength":297992,
			"uri":"Frondeur.bin"
		}
	]
}
