{
	"asset":{
		"generator":"Khronos glTF Blender I/O v4.3.47",
		"version":"2.0"
	},
	"scene":0,
	"scenes":[
		{
			"name":"Scene",
			"nodes":[
				0
			]
		}
	],
	"nodes":[
		{
			"mesh":0,
			"name":"Messager"
		}
	],
	"materials":[
		{
			"doubleSided":true,
			"name":"Greek.002",
			"pbrMetallicRoughness":{
				"metallicFactor":0,
				"roughnessFactor":0.5527864098548889
			}
		}
	],
	"meshes":[
		{
			"name":"Mesh.001",
			"primitives":[
				{
					"attributes":{
						"POSITION":0,
						"NORMAL":1,
						"TEXCOORD_0":2,
						"TEXCOORD_1":3,
						"TEXCOORD_2":4,
						"COLOR_0":5,
						"COLOR_1":6
					},
					"indices":7,
					"material":0
				}
			]
		}
	],
	"accessors":[
		{
			"bufferView":0,
			"componentType":5126,
			"count":3523,
			"max":[
				1.006827473640442,
				1.8556551933288574,
				0.15085507929325104
			],
			"min":[
				-1.040687084197998,
				0.06760406494140625,
				-0.16382646560668945
			],
			"type":"VEC3"
		},
		{
			"bufferView":1,
			"componentType":5126,
			"count":3523,
			"type":"VEC3"
		},
		{
			"bufferView":2,
			"componentType":5126,
			"count":3523,
			"type":"VEC2"
		},
		{
			"bufferView":3,
			"componentType":5126,
			"count":3523,
			"type":"VEC2"
		},
		{
			"bufferView":4,
			"componentType":5126,
			"count":3523,
			"type":"VEC2"
		},
		{
			"bufferView":5,
			"componentType":5126,
			"count":3523,
			"type":"VEC3"
		},
		{
			"bufferView":6,
			"componentType":5123,
			"count":3523,
			"normalized":true,
			"type":"VEC4"
		},
		{
			"bufferView":7,
			"componentType":5123,
			"count":5022,
			"type":"SCALAR"
		}
	],
	"bufferViews":[
		{
			"buffer":0,
			"byteLength":42276,
			"byteOffset":0,
			"target":34962
		},
		{
			"buffer":0,
			"byteLength":42276,
			"byteOffset":42276,
			"target":34962
		},
		{
			"buffer":0,
			"byteLength":28184,
			"byteOffset":84552,
			"target":34962
		},
		{
			"buffer":0,
			"byteLength":28184,
			"byteOffset":112736,
			"target":34962
		},
		{
			"buffer":0,
			"byteLength":28184,
			"byteOffset":140920,
			"target":34962
		},
		{
			"buffer":0,
			"byteLength":42276,
			"byteOffset":169104,
			"target":34962
		},
		{
			"buffer":0,
			"byteLength":28184,
			"byteOffset":211380,
			"target":34962
		},
		{
			"buffer":0,
			"byteLength":10044,
			"byteOffset":239564,
			"target":34963
		}
	],
	"buffers":[
		{
			"byteLength":249608,
			"uri":"Messager.bin"
		}
	]
}
