{
	"asset":{
		"generator":"Khronos glTF Blender I/O v4.3.47",
		"version":"2.0"
	},
	"scene":0,
	"scenes":[
		{
			"name":"Scene",
			"nodes":[
				0
			]
		}
	],
	"nodes":[
		{
			"mesh":0,
			"name":"Hoplite",
			"rotation":[
				0.7071068286895752,
				0,
				0,
				0.7071068286895752
			],
			"translation":[
				865.4132080078125,
				0,
				0
			]
		}
	],
	"materials":[
		{
			"doubleSided":true,
			"name":"Greek",
			"pbrMetallicRoughness":{
				"metallicFactor":0,
				"roughnessFactor":0.5527864098548889
			}
		}
	],
	"meshes":[
		{
			"name":"Mesh.005",
			"primitives":[
				{
					"attributes":{
						"POSITION":0,
						"NORMAL":1,
						"TEXCOORD_0":2,
						"TEXCOORD_1":3,
						"COLOR_0":4,
						"COLOR_1":5
					},
					"indices":6,
					"material":0
				}
			]
		}
	],
	"accessors":[
		{
			"bufferView":0,
			"componentType":5126,
			"count":5519,
			"max":[
				-763.0374755859375,
				14.316797256469727,
				8.285045623779297e-06
			],
			"min":[
				-967.7889404296875,
				-18.85417938232422,
				-178.80511474609375
			],
			"type":"VEC3"
		},
		{
			"bufferView":1,
			"componentType":5126,
			"count":5519,
			"type":"VEC3"
		},
		{
			"bufferView":2,
			"componentType":5126,
			"count":5519,
			"type":"VEC2"
		},
		{
			"bufferView":3,
			"componentType":5126,
			"count":5519,
			"type":"VEC2"
		},
		{
			"bufferView":4,
			"componentType":5121,
			"count":5519,
			"normalized":true,
			"type":"VEC4"
		},
		{
			"bufferView":5,
			"componentType":5123,
			"count":5519,
			"normalized":true,
			"type":"VEC4"
		},
		{
			"bufferView":6,
			"componentType":5123,
			"count":7761,
			"type":"SCALAR"
		}
	],
	"bufferViews":[
		{
			"buffer":0,
			"byteLength":66228,
			"byteOffset":0,
			"target":34962
		},
		{
			"buffer":0,
			"byteLength":66228,
			"byteOffset":66228,
			"target":34962
		},
		{
			"buffer":0,
			"byteLength":44152,
			"byteOffset":132456,
			"target":34962
		},
		{
			"buffer":0,
			"byteLength":44152,
			"byteOffset":176608,
			"target":34962
		},
		{
			"buffer":0,
			"byteLength":22076,
			"byteOffset":220760,
			"target":34962
		},
		{
			"buffer":0,
			"byteLength":44152,
			"byteOffset":242836,
			"target":34962
		},
		{
			"buffer":0,
			"byteLength":15522,
			"byteOffset":286988,
			"target":34963
		}
	],
	"buffers":[
		{
			"byteLength":302512,
			"uri":"Hoplite.bin"
		}
	]
}
